<?xml version="1.0" encoding="utf-8"?>
<!-- Generator: Adobe Illustrator 20.0.0, SVG Export Plug-In . SVG Version: 6.00 Build 0)  -->
<svg version="1.1" id="圖層_1" xmlns="http://www.w3.org/2000/svg" xmlns:xlink="http://www.w3.org/1999/xlink" x="0px" y="0px"
	 viewBox="0 0 20 20" style="enable-background:new 0 0 20 20;" xml:space="preserve">
<style type="text/css">
	.st0{fill:#FFFFFF;}
	.st1{fill:#333333;}
	.st2{fill:#1B1B1B;}
	.st3{fill:#73BFE1;}
	.st4{fill:#88C680;}
	.st5{fill:#DE7683;}
	.st6{fill:#F7EE7F;}
	.st7{fill:#323333;}
	.st8{fill:url(#SVGID_1_);stroke:#323333;stroke-width:0.1;stroke-miterlimit:10;}
	.st9{fill:#333333;stroke:#323333;stroke-width:0.1;stroke-miterlimit:10;}
	.st10{fill:url(#SVGID_2_);stroke:#323333;stroke-width:0.1;stroke-miterlimit:10;}
	.st11{fill:url(#SVGID_3_);stroke:#323333;stroke-width:0.1;stroke-miterlimit:10;}
	.st12{fill:none;stroke:#323333;stroke-width:2;stroke-linecap:round;stroke-miterlimit:10;}
	.st13{fill:none;stroke:#323333;stroke-linecap:round;stroke-miterlimit:10;}
	.st14{fill:url(#SVGID_4_);stroke:#323333;stroke-width:0.1;stroke-miterlimit:10;}
	.st15{fill:url(#SVGID_5_);stroke:#323333;stroke-width:0.1;stroke-miterlimit:10;}
	.st16{fill:url(#SVGID_6_);stroke:#323333;stroke-width:0.1;stroke-miterlimit:10;}
</style>
<linearGradient id="SVGID_1_" gradientUnits="userSpaceOnUse" x1="0.679" y1="0.679" x2="18.7527" y2="18.7527">
	<stop  offset="0" style="stop-color:#FFFFFF"/>
	<stop  offset="1" style="stop-color:#F39800"/>
</linearGradient>
<path class="st8" d="M17,20H3c-1.7,0-3-1.3-3-3V3c0-1.7,1.3-3,3-3h14c1.7,0,3,1.3,3,3v14C20,18.7,18.7,20,17,20z"/>
<g>
	<path class="st9" d="M3.2,6.9c0,0,1.5-1,3,0.5c0,0-0.5-1.2-1.5-1.3C3.6,6,3.2,6.9,3.2,6.9z"/>
	<circle class="st7" cx="14.7" cy="6.8" r="1.5"/>
	<path class="st13" d="M4.5,12.4c0,0,1.9,2.7,5.6,2.7s5.6-2.7,5.6-2.7"/>
</g>
</svg>
