<?xml version="1.0" encoding="utf-8"?>
<!-- Generator: Adobe Illustrator 20.0.0, SVG Export Plug-In . SVG Version: 6.00 Build 0)  -->
<svg version="1.1" id="圖層_1" xmlns="http://www.w3.org/2000/svg" xmlns:xlink="http://www.w3.org/1999/xlink" x="0px" y="0px"
	 viewBox="0 0 20 20" style="enable-background:new 0 0 20 20;" xml:space="preserve">
<style type="text/css">
	.st0{fill:#FFFFFF;}
	.st1{fill:#333333;}
	.st2{fill:#1B1B1B;}
	.st3{fill:#73BFE1;}
	.st4{fill:#88C680;}
	.st5{fill:#DE7683;}
	.st6{fill:#F7EE7F;}
	.st7{fill:#323333;}
	.st8{fill:url(#SVGID_1_);stroke:#323333;stroke-width:0.1;stroke-miterlimit:10;}
	.st9{fill:#333333;stroke:#323333;stroke-width:0.1;stroke-miterlimit:10;}
	.st10{fill:url(#SVGID_2_);stroke:#323333;stroke-width:0.1;stroke-miterlimit:10;}
	.st11{fill:url(#SVGID_3_);stroke:#323333;stroke-width:0.1;stroke-miterlimit:10;}
	.st12{fill:none;stroke:#323333;stroke-width:2;stroke-linecap:round;stroke-miterlimit:10;}
	.st13{fill:none;stroke:#323333;stroke-linecap:round;stroke-miterlimit:10;}
	.st14{fill:url(#SVGID_4_);stroke:#323333;stroke-width:0.1;stroke-miterlimit:10;}
	.st15{fill:url(#SVGID_5_);stroke:#323333;stroke-width:0.1;stroke-miterlimit:10;}
	.st16{fill:url(#SVGID_6_);stroke:#323333;stroke-width:0.1;stroke-miterlimit:10;}
</style>
<g>
	<circle class="st0" cx="10" cy="10" r="8.7"/>
	<g>
		<path class="st1" d="M10,1.3c4.8,0,8.7,3.9,8.7,8.7s-3.9,8.7-8.7,8.7S1.3,14.8,1.3,10S5.2,1.3,10,1.3 M10,0C4.5,0,0,4.5,0,10
			s4.5,10,10,10s10-4.5,10-10S15.5,0,10,0L10,0z"/>
	</g>
	<g>
		<path class="st1" d="M3.8,14.5c-0.1,0-0.3-0.1-0.3-0.2c-0.1-0.2-0.1-0.4,0.1-0.6l6.2-4.1c0.2-0.1,0.4-0.1,0.6,0.1
			c0.1,0.2,0.1,0.4-0.1,0.6L4,14.4C3.9,14.5,3.9,14.5,3.8,14.5z"/>
	</g>
	<g>
		<path class="st1" d="M10,10.6C10,10.6,10,10.6,10,10.6c-0.3,0-0.5-0.2-0.5-0.5l0-5.9c0-0.3,0.2-0.5,0.5-0.5c0,0,0,0,0,0
			c0.3,0,0.5,0.2,0.5,0.5l0,5.9C10.5,10.3,10.3,10.6,10,10.6z"/>
	</g>
	<g>
		<g>
			<circle class="st0" cx="10" cy="10" r="0.9"/>
		</g>
		<g>
			<path class="st1" d="M10,9.5c0.3,0,0.5,0.2,0.5,0.5s-0.2,0.5-0.5,0.5S9.5,10.3,9.5,10S9.7,9.5,10,9.5 M10,8.7
				c-0.7,0-1.3,0.6-1.3,1.3s0.6,1.3,1.3,1.3c0.7,0,1.3-0.6,1.3-1.3S10.7,8.7,10,8.7L10,8.7z"/>
		</g>
	</g>
</g>
</svg>
