<?xml version="1.0" encoding="utf-8"?>
<!-- Generator: Adobe Illustrator 20.0.0, SVG Export Plug-In . SVG Version: 6.00 Build 0)  -->
<svg version="1.1" id="圖層_1" xmlns="http://www.w3.org/2000/svg" xmlns:xlink="http://www.w3.org/1999/xlink" x="0px" y="0px"
	 viewBox="0 0 20 20" style="enable-background:new 0 0 20 20;" xml:space="preserve">
<style type="text/css">
	.st0{fill:#FFFFFF;}
	.st1{fill:#333333;}
	.st2{fill:#1B1B1B;}
	.st3{fill:#323333;}
	.st4{fill:url(#SVGID_1_);stroke:#323333;stroke-width:0.1;stroke-miterlimit:10;}
	.st5{fill:url(#SVGID_2_);stroke:#323333;stroke-width:0.1;stroke-miterlimit:10;}
	.st6{fill:#333333;stroke:#323333;stroke-width:0.1;stroke-miterlimit:10;}
	.st7{fill:url(#SVGID_3_);stroke:#323333;stroke-width:0.1;stroke-miterlimit:10;}
	.st8{fill:url(#SVGID_4_);stroke:#323333;stroke-width:0.1;stroke-miterlimit:10;}
	.st9{fill:none;stroke:#323333;stroke-width:2;stroke-linecap:round;stroke-miterlimit:10;}
	.st10{fill:none;stroke:#323333;stroke-linecap:round;stroke-miterlimit:10;}
	.st11{fill:url(#SVGID_5_);stroke:#323333;stroke-width:0.1;stroke-miterlimit:10;}
	.st12{fill:url(#SVGID_6_);stroke:#323333;stroke-width:0.1;stroke-miterlimit:10;}
	.st13{fill:url(#SVGID_7_);stroke:#323333;stroke-width:0.1;stroke-miterlimit:10;}
	.st14{fill:url(#SVGID_8_);stroke:#323333;stroke-width:0.1;stroke-miterlimit:10;}
	.st15{fill:url(#SVGID_9_);stroke:#323333;stroke-width:0.1;stroke-miterlimit:10;}
	.st16{fill:url(#SVGID_10_);}
	.st17{fill:url(#SVGID_11_);}
</style>
<linearGradient id="SVGID_1_" gradientUnits="userSpaceOnUse" x1="-1.342" y1="2.7848" x2="12.6485" y2="16.7753">
	<stop  offset="0" style="stop-color:#FFFFFF"/>
	<stop  offset="1" style="stop-color:#F39800"/>
</linearGradient>
<path style="fill:url(#SVGID_1_);" d="M3,0C1.3,0,0,1.3,0,3v14c0,1.7,1.3,3,3,3h7V0H3z"/>
<linearGradient id="SVGID_2_" gradientUnits="userSpaceOnUse" x1="6.9635" y1="2.8422" x2="21.0558" y2="16.9345">
	<stop  offset="0" style="stop-color:#FFFFFF"/>
	<stop  offset="1" style="stop-color:#E60012"/>
</linearGradient>
<path style="fill:url(#SVGID_2_);" d="M17,0h-7v20h7c1.7,0,3-1.3,3-3V3C20,1.3,18.7,0,17,0z"/>
<g>
	<path class="st3" d="M17,0.1c1.6,0,2.9,1.3,2.9,2.9v14c0,1.6-1.3,2.9-2.9,2.9H3c-1.6,0-2.9-1.3-2.9-2.9V3c0-1.6,1.3-2.9,2.9-2.9H17
		 M17,0H3C1.4,0,0,1.3,0,3v14c0,1.7,1.3,3,3,3h14c1.7,0,3-1.3,3-3V3C20,1.3,18.7,0,17,0L17,0z"/>
</g>
<g>
	<g>
		<rect x="2.5" y="6.8" class="st1" width="3.3" height="0.7"/>
	</g>
	<g>
		<rect x="14.2" y="6.8" class="st1" width="3.3" height="0.7"/>
	</g>
	<g>
		<rect x="4" y="12" class="st1" width="12.2" height="1.2"/>
	</g>
</g>
</svg>
