<?xml version="1.0" encoding="utf-8"?>
<!-- Generator: Adobe Illustrator 20.0.0, SVG Export Plug-In . SVG Version: 6.00 Build 0)  -->
<svg version="1.1" id="圖層_1" xmlns="http://www.w3.org/2000/svg" xmlns:xlink="http://www.w3.org/1999/xlink" x="0px" y="0px"
	 viewBox="0 0 20 20" style="enable-background:new 0 0 20 20;" xml:space="preserve">
<style type="text/css">
	.st0{fill:#FFFFFF;}
	.st1{fill:#333333;}
	.st2{fill:#1B1B1B;}
	.st3{fill:#73BFE1;}
	.st4{fill:#88C680;}
	.st5{fill:#DE7683;}
	.st6{fill:#F7EE7F;}
	.st7{fill:#323333;}
	.st8{fill:url(#SVGID_1_);stroke:#323333;stroke-width:0.1;stroke-miterlimit:10;}
	.st9{fill:#333333;stroke:#323333;stroke-width:0.1;stroke-miterlimit:10;}
	.st10{fill:url(#SVGID_2_);stroke:#323333;stroke-width:0.1;stroke-miterlimit:10;}
	.st11{fill:url(#SVGID_3_);stroke:#323333;stroke-width:0.1;stroke-miterlimit:10;}
	.st12{fill:none;stroke:#323333;stroke-width:2;stroke-linecap:round;stroke-miterlimit:10;}
	.st13{fill:none;stroke:#323333;stroke-linecap:round;stroke-miterlimit:10;}
	.st14{fill:url(#SVGID_4_);stroke:#323333;stroke-width:0.1;stroke-miterlimit:10;}
	.st15{fill:url(#SVGID_5_);stroke:#323333;stroke-width:0.1;stroke-miterlimit:10;}
	.st16{fill:url(#SVGID_6_);stroke:#323333;stroke-width:0.1;stroke-miterlimit:10;}
</style>
<linearGradient id="SVGID_1_" gradientUnits="userSpaceOnUse" x1="0.7532" y1="0.7532" x2="18.9583" y2="18.9583">
	<stop  offset="0" style="stop-color:#FFFFFF"/>
	<stop  offset="1" style="stop-color:#E60012"/>
</linearGradient>
<path class="st8" d="M17,20H3c-1.7,0-3-1.3-3-3V3c0-1.7,1.3-3,3-3h14c1.7,0,3,1.3,3,3v14C20,18.7,18.7,20,17,20z"/>
<path class="st9" d="M3.5,4.6l3.9,3C6.7,5.5,3.5,4.6,3.5,4.6z"/>
<ellipse class="st9" cx="5.4" cy="9" rx="1.1" ry="1.6"/>
<path class="st9" d="M12.6,7.6l3.9-3C16.5,4.6,13.3,5.5,12.6,7.6z"/>
<ellipse class="st9" cx="14.6" cy="9" rx="1.1" ry="1.6"/>
<path class="st9" d="M10,12.5c-1.2,0-3.8,0.4-4,2.7c0,0.1,0.1,0.2,0.2,0.2C6.8,15.2,8.6,15,10,15c1.4,0,3.2,0.3,3.8,0.4
	c0.1,0,0.2-0.1,0.2-0.2C13.8,12.9,11.2,12.5,10,12.5z"/>
</svg>
