<?xml version="1.0" encoding="utf-8"?>
<!-- Generator: Adobe Illustrator 20.0.0, SVG Export Plug-In . SVG Version: 6.00 Build 0)  -->
<svg version="1.1" id="圖層_1" xmlns="http://www.w3.org/2000/svg" xmlns:xlink="http://www.w3.org/1999/xlink" x="0px" y="0px"
	 viewBox="0 0 20 20" style="enable-background:new 0 0 20 20;" xml:space="preserve">
<style type="text/css">
	.st0{fill:#FFFFFF;}
	.st1{fill:#333333;}
	.st2{fill:#1B1B1B;}
	.st3{fill:#73BFE1;}
	.st4{fill:#88C680;}
	.st5{fill:#DE7683;}
	.st6{fill:#F7EE7F;}
	.st7{fill:#323333;}
	.st8{fill:url(#SVGID_1_);stroke:#323333;stroke-width:0.1;stroke-miterlimit:10;}
	.st9{fill:#333333;stroke:#323333;stroke-width:0.1;stroke-miterlimit:10;}
	.st10{fill:url(#SVGID_2_);stroke:#323333;stroke-width:0.1;stroke-miterlimit:10;}
	.st11{fill:url(#SVGID_3_);stroke:#323333;stroke-width:0.1;stroke-miterlimit:10;}
	.st12{fill:none;stroke:#323333;stroke-width:2;stroke-linecap:round;stroke-miterlimit:10;}
	.st13{fill:none;stroke:#323333;stroke-linecap:round;stroke-miterlimit:10;}
	.st14{fill:url(#SVGID_4_);stroke:#323333;stroke-width:0.1;stroke-miterlimit:10;}
	.st15{fill:url(#SVGID_5_);stroke:#323333;stroke-width:0.1;stroke-miterlimit:10;}
	.st16{fill:url(#SVGID_6_);stroke:#323333;stroke-width:0.1;stroke-miterlimit:10;}
</style>
<g>
	<g>
		<g>
			<path class="st0" d="M16.9,1H3.2C2.9,1,2.8,1.1,2.8,1.4v17.2c0,0.2,0.2,0.4,0.4,0.4h13.7c0.2,0,0.4-0.2,0.4-0.4V1.4
				C17.2,1.1,17.1,1,16.9,1z"/>
		</g>
		<path class="st2" d="M16.9,1c0.2,0,0.4,0.2,0.4,0.4v17.2c0,0.2-0.2,0.4-0.4,0.4H3.2c-0.2,0-0.4-0.2-0.4-0.4V1.4
			C2.8,1.2,2.9,1,3.2,1H16.9 M16.9,0H3.2C2.4,0,1.8,0.6,1.8,1.4v17.2c0,0.8,0.6,1.4,1.4,1.4h13.7c0.8,0,1.4-0.6,1.4-1.4V1.4
			C18.2,0.6,17.6,0,16.9,0L16.9,0z"/>
	</g>
	<g>
		<path class="st2" d="M10.6,3.8H3.9c-0.3,0-0.6-0.3-0.6-0.6s0.3-0.6,0.6-0.6h6.7c0.3,0,0.6,0.3,0.6,0.6S11,3.8,10.6,3.8z"/>
	</g>
	<g>
		<path class="st2" d="M16,7.3H3.9C3.6,7.3,3.3,7,3.3,6.7c0-0.3,0.3-0.6,0.6-0.6H16c0.3,0,0.6,0.3,0.6,0.6C16.6,7,16.4,7.3,16,7.3z"
			/>
	</g>
	<g>
		<path class="st2" d="M16,10.6H3.9c-0.3,0-0.6-0.3-0.6-0.6s0.3-0.6,0.6-0.6H16c0.3,0,0.6,0.3,0.6,0.6S16.4,10.6,16,10.6z"/>
	</g>
	<g>
		<path class="st2" d="M16,14H3.9c-0.3,0-0.6-0.3-0.6-0.6c0-0.3,0.3-0.6,0.6-0.6H16c0.3,0,0.6,0.3,0.6,0.6C16.6,13.7,16.4,14,16,14z
			"/>
	</g>
	<g>
		<path class="st2" d="M12.6,17.3H3.9c-0.3,0-0.6-0.3-0.6-0.6c0-0.3,0.3-0.6,0.6-0.6h8.7c0.3,0,0.6,0.3,0.6,0.6
			C13.2,17,13,17.3,12.6,17.3z"/>
	</g>
</g>
</svg>
