<?xml version="1.0" encoding="utf-8"?>
<!-- Generator: Adobe Illustrator 20.0.0, SVG Export Plug-In . SVG Version: 6.00 Build 0)  -->
<svg version="1.1" id="圖層_1" xmlns="http://www.w3.org/2000/svg" xmlns:xlink="http://www.w3.org/1999/xlink" x="0px" y="0px"
	 viewBox="0 0 20 20" style="enable-background:new 0 0 20 20;" xml:space="preserve">
<style type="text/css">
	.st0{fill:#FFFFFF;}
	.st1{fill:#333333;}
	.st2{fill:#1B1B1B;}
	.st3{fill:#73BFE1;}
	.st4{fill:#88C680;}
	.st5{fill:#DE7683;}
	.st6{fill:#F7EE7F;}
	.st7{fill:#323333;}
	.st8{fill:url(#SVGID_1_);stroke:#323333;stroke-width:0.1;stroke-miterlimit:10;}
	.st9{fill:#333333;stroke:#323333;stroke-width:0.1;stroke-miterlimit:10;}
	.st10{fill:url(#SVGID_2_);stroke:#323333;stroke-width:0.1;stroke-miterlimit:10;}
	.st11{fill:url(#SVGID_3_);stroke:#323333;stroke-width:0.1;stroke-miterlimit:10;}
	.st12{fill:none;stroke:#323333;stroke-width:2;stroke-linecap:round;stroke-miterlimit:10;}
	.st13{fill:none;stroke:#323333;stroke-linecap:round;stroke-miterlimit:10;}
	.st14{fill:url(#SVGID_4_);stroke:#323333;stroke-width:0.1;stroke-miterlimit:10;}
	.st15{fill:url(#SVGID_5_);stroke:#323333;stroke-width:0.1;stroke-miterlimit:10;}
	.st16{fill:url(#SVGID_6_);stroke:#323333;stroke-width:0.1;stroke-miterlimit:10;}
</style>
<g>
	<g>
		<circle class="st1" cx="10" cy="4.5" r="4.5"/>
	</g>
	<path class="st2" d="M17.8,12.1c-0.4-1.2-1.3-2.1-2.5-2.4l-2.4-0.8c0,0-1.4,1-2.9,1c-1.5-0.1-2.9-1-2.9-1L4.6,9.7
		c-1.2,0.3-2,1.2-2.4,2.4L1.2,20H10h8.8L17.8,12.1z"/>
	<g>
		<path class="st0" d="M10.1,10.8H9.9c-0.5,0-0.8-0.4-0.8-0.8v0c0-0.5,0.4-0.8,0.8-0.8h0.2c0.5,0,0.8,0.4,0.8,0.8v0
			C10.9,10.4,10.6,10.8,10.1,10.8z"/>
	</g>
	<g>
		<polygon class="st0" points="10.6,10.9 10,10.9 9.4,10.9 8.7,15.6 10,18.3 11.3,15.6 		"/>
	</g>
</g>
</svg>
