<?xml version="1.0" encoding="utf-8"?>
<!-- Generator: Adobe Illustrator 20.0.0, SVG Export Plug-In . SVG Version: 6.00 Build 0)  -->
<svg version="1.1" id="圖層_1" xmlns="http://www.w3.org/2000/svg" xmlns:xlink="http://www.w3.org/1999/xlink" x="0px" y="0px"
	 viewBox="0 0 22 20" style="enable-background:new 0 0 22 20;" xml:space="preserve">
<style type="text/css">
	.st0{fill:#FFFFFF;}
	.st1{fill:#333333;}
	.st2{fill:#1B1B1B;}
	.st3{fill:#323333;}
	.st4{fill:url(#SVGID_1_);stroke:#323333;stroke-width:0.1;stroke-miterlimit:10;}
	.st5{fill:#333333;stroke:#323333;stroke-width:0.1;stroke-miterlimit:10;}
	.st6{fill:url(#SVGID_2_);stroke:#323333;stroke-width:0.1;stroke-miterlimit:10;}
	.st7{fill:url(#SVGID_3_);stroke:#323333;stroke-width:0.1;stroke-miterlimit:10;}
	.st8{fill:none;stroke:#323333;stroke-width:2;stroke-linecap:round;stroke-miterlimit:10;}
	.st9{fill:none;stroke:#323333;stroke-linecap:round;stroke-miterlimit:10;}
	.st10{fill:url(#SVGID_4_);stroke:#323333;stroke-width:0.1;stroke-miterlimit:10;}
	.st11{fill:url(#SVGID_5_);stroke:#323333;stroke-width:0.1;stroke-miterlimit:10;}
	.st12{fill:url(#SVGID_6_);stroke:#323333;stroke-width:0.1;stroke-miterlimit:10;}
</style>
<g>
	<g>
		<g>
			<path class="st0" d="M16.6,18.6c2.3-2.3,3.5-5.4,3.5-8.6c0-3.2-1.2-6.3-3.5-8.6l1.2-1.2c2.6,2.6,4,6.1,4,9.8c0,3.7-1.4,7.2-4,9.8
				L16.6,18.6z"/>
			<path class="st2" d="M17.9,0.4c2.5,2.6,3.9,6,3.9,9.6s-1.4,7-3.9,9.6l-1-1c2.2-2.3,3.5-5.4,3.5-8.6s-1.2-6.3-3.5-8.6L17.9,0.4
				 M17.9,0l-1.4,1.4c4.8,4.8,4.8,12.5,0,17.2l1.4,1.4C23.4,14.5,23.4,5.5,17.9,0L17.9,0z"/>
		</g>
		<g>
			<path class="st0" d="M13.9,15.8c3.2-3.2,3.2-8.4,0-11.7l1.2-1.2c3.8,3.9,3.8,10.2,0,14.1L13.9,15.8z"/>
			<path class="st2" d="M15.1,3.1c1.8,1.9,2.7,4.3,2.7,6.9c0,2.6-1,5-2.7,6.9l-1-1c3.1-3.3,3.1-8.4,0-11.7L15.1,3.1 M15.1,2.8
				l-1.4,1.4c3.2,3.2,3.2,8.5,0,11.7l1.4,1.4C19.1,13.2,19.1,6.8,15.1,2.8L15.1,2.8z"/>
		</g>
	</g>
	<g>
		<path class="st0" d="M4.7,12.9l-3.1,0c-0.9,0-1.6-0.7-1.6-1.5V8.7c0-0.9,0.7-1.6,1.6-1.6h3l7.1-3v11.8L4.7,12.9z"/>
		<path class="st2" d="M11.6,4.3v11.4l-6.8-3l0,0H4.7h-3c-0.8,0-1.4-0.6-1.4-1.4V8.7c0-0.8,0.6-1.4,1.4-1.4h3h0.1l0,0L11.6,4.3
			 M11.9,3.9L4.7,7h-3C0.8,7,0,7.8,0,8.7v2.6C0,12.2,0.8,13,1.7,13h3l7.2,3.1V3.9L11.9,3.9z"/>
	</g>
</g>
</svg>
