<?xml version="1.0" encoding="utf-8"?>
<!-- Generator: Adobe Illustrator 20.0.0, SVG Export Plug-In . SVG Version: 6.00 Build 0)  -->
<svg version="1.1" id="圖層_1" xmlns="http://www.w3.org/2000/svg" xmlns:xlink="http://www.w3.org/1999/xlink" x="0px" y="0px"
	 viewBox="0 0 22 20" style="enable-background:new 0 0 22 20;" xml:space="preserve">
<style type="text/css">
	.st0{fill:#FFFFFF;}
	.st1{fill:#333333;}
	.st2{fill:#1B1B1B;}
	.st3{fill:#73BFE1;}
	.st4{fill:#88C680;}
	.st5{fill:#DE7683;}
	.st6{fill:#F7EE7F;}
	.st7{fill:#323333;}
	.st8{fill:url(#SVGID_1_);stroke:#323333;stroke-width:0.1;stroke-miterlimit:10;}
	.st9{fill:#333333;stroke:#323333;stroke-width:0.1;stroke-miterlimit:10;}
	.st10{fill:url(#SVGID_2_);stroke:#323333;stroke-width:0.1;stroke-miterlimit:10;}
	.st11{fill:url(#SVGID_3_);stroke:#323333;stroke-width:0.1;stroke-miterlimit:10;}
	.st12{fill:none;stroke:#323333;stroke-width:2;stroke-linecap:round;stroke-miterlimit:10;}
	.st13{fill:none;stroke:#323333;stroke-linecap:round;stroke-miterlimit:10;}
	.st14{fill:url(#SVGID_4_);stroke:#323333;stroke-width:0.1;stroke-miterlimit:10;}
	.st15{fill:url(#SVGID_5_);stroke:#323333;stroke-width:0.1;stroke-miterlimit:10;}
	.st16{fill:url(#SVGID_6_);stroke:#323333;stroke-width:0.1;stroke-miterlimit:10;}
</style>
<g>
	<g>
		<path class="st2" d="M17.9,20l-1.4-1.4c4.8-4.8,4.8-12.5,0-17.2L17.9,0C23.4,5.5,23.4,14.5,17.9,20z"/>
		<path class="st2" d="M15.1,17.2l-1.4-1.4c3.2-3.2,3.2-8.5,0-11.7l1.4-1.4C19.1,6.8,19.1,13.2,15.1,17.2z"/>
	</g>
	<path class="st2" d="M4.7,7h-3C0.8,7,0,7.8,0,8.7v2.6C0,12.2,0.8,13,1.7,13h3l7.2,3.1V3.9L4.7,7z"/>
</g>
</svg>
