<?xml version="1.0" encoding="utf-8"?>
<!-- Generator: Adobe Illustrator 19.2.1, SVG Export Plug-In . SVG Version: 6.00 Build 0)  -->
<svg version="1.1" id="圖層_1" xmlns="http://www.w3.org/2000/svg" xmlns:xlink="http://www.w3.org/1999/xlink" x="0px" y="0px"
	 viewBox="0 0 100 100" style="enable-background:new 0 0 100 100;" xml:space="preserve">
<style type="text/css">
	.st0{fill:#FFFFFF;}
	.st1{fill:#9D9D9D;}
	.st2{fill:#9D9D9D;stroke:#FFFFFF;stroke-width:0.25;stroke-miterlimit:10;}
	.st3{fill:none;stroke:#FFFFFF;stroke-width:0.25;stroke-miterlimit:10;}
</style>
<path class="st0" d="M63.5,37.8l0-0.2c-0.1,0-0.2,0.1-0.3,0.1C63.3,37.7,63.4,37.7,63.5,37.8L63.5,37.8z"/>
<path class="st0" d="M59.5,36.8c0.1,0,0.2,0,0.3,0l0,0c0,0-0.1,0-0.1,0C59.7,36.7,59.6,36.8,59.5,36.8z"/>
<path class="st0" d="M44.9,37.1L44.9,37.1C44.9,37.1,44.9,37.1,44.9,37.1L44.9,37.1L44.9,37.1z"/>
<path class="st0" d="M44.4,37.2L44.4,37.2C44.4,37.1,44.4,37.1,44.4,37.2L44.4,37.2L44.4,37.2z"/>
<path class="st0" d="M43.5,38.1L43.5,38.1C43.5,38.1,43.5,38.1,43.5,38.1c0.1-0.1,0.1-0.1,0.1-0.1L43.5,38.1z"/>
<path class="st0" d="M43.4,37.5L43.4,37.5c0,0.1,0.1,0.2,0.1,0.2c0.1,0,0.1,0,0.2-0.1C43.6,37.6,43.5,37.5,43.4,37.5z"/>
<g>
	<g>
		<g>
			<path class="st1" d="M37.1,38.5c-0.7,1.6-1.3,3.2-1.8,4.8c-0.4,1.6-0.5,3.2-0.5,4.9c0,0.8,0,1.6,0.1,2.5c0.1,0.8,0.2,1.6,0.4,2.3
				c0.3,0.8,0.5,1.5,0.9,2.3l1,2.4l0,0l-0.6,0.3c-0.5-1.2-0.7-2.6-0.4-4c0.1-0.7,0.5-1.4,1.2-1.9c0.7-0.5,1.5-0.6,2.1-0.5l0,0.7
				c-0.6,0.2-1,0.4-1.3,0.8c-0.3,0.3-0.5,0.8-0.7,1.3c-0.3,1-0.3,2.3-0.3,3.5l0,0.8l-0.6-0.5l0,0c-0.7-0.6-1.3-1.2-1.9-1.9
				c-0.5-0.7-1-1.6-1.4-2.4c-0.4-1-0.5-1.9-0.6-2.8c-0.1-0.9-0.1-1.8,0-2.7c0.1-1.8,0.5-3.6,1.2-5.3c0.7-1.7,1.7-3.1,2.8-4.5
				L37.1,38.5z"/>
			<path class="st1" d="M47,36.8c0,0,0-0.3,0.1-0.8c0.1-0.5,0.3-1.2,0.7-1.9c0.4-0.7,1.2-1.5,2.1-2c0.9-0.5,2-0.8,3.1-0.9
				c1-0.1,2.2,0,3.2,0.2c1,0.3,1.9,0.7,2.6,1.2c1.3,1,1.8,2,1.8,2l-0.2,0.1c0,0-0.6-0.9-2-1.7c-0.7-0.4-1.5-0.8-2.4-1
				c-1-0.2-1.9-0.2-3,0c-1,0.2-2,0.5-2.8,0.9c-0.8,0.4-1.4,1-1.9,1.6c-0.9,1.2-1,2.3-1,2.3L47,36.8z"/>
			<path class="st1" d="M50.2,33.4c0,0-0.3,0.1-0.5,0.6c-0.3,0.5-0.4,1.3-0.3,2.3c0.1,1,0.5,2.1,1.4,2.8c0.4,0.4,1,0.6,1.6,0.7
				c0.5,0.1,1.3,0.1,1.9,0c1.3-0.2,2.5-0.7,3.4-1.5c0.4-0.4,0.7-0.8,0.9-1.3c0.2-0.5,0.2-0.9,0.2-1.4c0-0.9-0.4-1.6-0.7-2.1
				c-0.3-0.5-0.6-0.7-0.6-0.7l0.1-0.2c0,0,0.4,0.1,0.9,0.5c0.6,0.4,1.2,1.2,1.4,2.4c0.1,0.5,0.1,1.3-0.1,1.9
				c-0.2,0.7-0.6,1.3-1.2,1.8c-1.1,1-2.6,1.6-4.1,1.8c-0.8,0.1-1.5,0.1-2.3,0c-0.8-0.2-1.5-0.6-2-1.1c-1.1-1.1-1.4-2.5-1.5-3.6
				c0-1.1,0.2-2.1,0.6-2.6c0.4-0.6,0.8-0.7,0.8-0.7L50.2,33.4z"/>
			<path class="st1" d="M56.7,35.7c0,0,0,0.3,0,0.8c0,0.5-0.3,1.2-1.1,1.7c-0.8,0.5-1.8,0.5-2.7,0.2c-0.5-0.2-0.9-0.6-1.1-1
				c-0.2-0.5-0.2-0.9-0.2-1.4c0.1-0.9,0.5-1.7,1.3-2.2c0.7-0.5,1.7-0.5,2.4-0.2c0.7,0.3,1.1,1,1.3,1.4
				C56.7,35.4,56.7,35.7,56.7,35.7L56.7,35.7z M55.4,35.7c0,0,0.2-0.7-0.5-1.4c-0.4-0.3-1.1-0.5-1.8-0.2c-0.3,0.1-0.7,0.3-0.9,0.7
				c-0.2,0.3-0.3,0.7-0.3,1.1c0.1,0.8,0.7,1.4,1.3,1.4c0.6,0,1.2-0.2,1.5-0.5c0.3-0.3,0.4-0.6,0.6-0.8
				C55.4,35.8,55.4,35.7,55.4,35.7L55.4,35.7z"/>
			<path class="st1" d="M54,35c0,0,0,0.1,0,0.3c0,0.2-0.2,0.4-0.4,0.6c-0.5,0.4-1.4-0.1-1.3-0.8c0-0.3,0.2-0.6,0.5-0.7
				c0.3-0.1,0.6-0.1,0.8,0C54,34.5,54,35,54,35L54,35z M53.4,35c0,0,0.1-0.2-0.1-0.4c-0.1-0.1-0.3-0.2-0.5-0.1
				c-0.2,0-0.4,0.3-0.3,0.5c0.1,0.5,0.7,0.5,0.8,0.3C53.4,35.1,53.4,35.1,53.4,35L53.4,35z"/>
			<path class="st1" d="M37.5,34.7c2.3,0.1,4.7-0.4,6.7-1.3c1-0.5,1.9-1.2,2.6-2c0.7-0.8,1.3-1.8,1.9-2.8c0.6-1,1.2-2.1,2-3.1
				c0.7-1,1.6-2,2.8-2.6c0.6-0.3,1.2-0.6,1.9-0.7c0.3-0.1,0.7-0.1,0.8-0.2c0.3-0.1,0.6-0.2,0.8-0.3c0.8-0.4,2-1.1,2.9-1.7
				c4-2.6,8.4-4.9,13.2-5.8c1.2-0.2,2.4-0.4,3.6-0.4c1.2,0,2.4,0,3.6,0.2c1.2,0.1,2.4,0.5,3.6,0.7c1.2,0.3,2.3,0.8,3.4,1.2l0,0
				l0.4,0.2l-0.3,0.4c-0.8,0.9-1.7,1.5-2.7,2.1c-1,0.6-2,1-3.1,1.3c-1.1,0.3-2.2,0.5-3.3,0.6c-1.1,0.1-2.2,0.1-3.3,0l0-0.5
				c2.1-0.7,4.2-1.2,6.2-1.8c2-0.6,4-1.3,5.9-2.3l0.1,0.6l0,0c-1.1-0.3-2.2-0.8-3.3-1.1c-1.1-0.2-2.3-0.5-3.4-0.6
				c-1.2-0.1-2.3-0.1-3.5,0c-1.2,0.1-2.3,0.2-3.4,0.5c-4.6,1-8.7,3.2-12.7,5.8c-1,0.7-1.9,1.3-3.2,1.9c-0.3,0.2-0.6,0.2-0.9,0.3
				c-0.5,0.1-0.6,0.1-0.9,0.2c-0.5,0.1-1,0.3-1.5,0.6c-1.8,1.1-3,3.2-4.2,5.2c-0.6,1-1.2,2.1-2.1,3c-0.9,0.9-2,1.7-3.1,2.2
				c-2.3,1-4.8,1.2-7.3,0.9L37.5,34.7z"/>
			<path class="st1" d="M72,22.2c0,0,1,0.2,2.7,1c1.7,0.8,4,2.1,6.4,4.2c1.2,1.1,2.4,2.4,3.6,3.8c1.1,1.5,2.2,3.2,3.1,5
				c0.9,1.8,1.7,3.8,2.2,5.9c0.3,1,0.5,2,0.8,3l0.7,3c0.4,2.1,0.7,4.3,0.9,6.4c0.1,1,0.2,2.1,0.2,3.1c0,1,0,2.1-0.1,3.1
				c-0.1,2-0.4,3.9-0.8,5.8c-0.4,1.8-0.9,3.5-1.4,5c-0.6,1.5-1.2,2.9-1.7,4c-0.6,1.1-1.2,2.1-1.7,2.9c-1.1,1.5-1.9,2.3-1.9,2.3
				l-0.6-0.4c0,0,1.4-3.9,2.2-9.8c0.2-1.5,0.4-3.1,0.6-4.7c0.2-1.7,0.2-3.4,0.2-5.3c0-1.8,0-3.7-0.1-5.6c-0.1-2-0.3-3.8-0.6-5.8
				l-0.5-3c-0.2-1-0.3-2-0.5-2.9c-0.4-1.9-0.9-3.6-1.5-5.3c-0.6-1.7-1.4-3.3-2.2-4.7c-0.8-1.4-1.7-2.8-2.7-3.9
				c-1.8-2.3-3.7-4-5.1-5.1c-1.4-1.1-2.3-1.6-2.3-1.6L72,22.2z"/>
			<path class="st1" d="M60.6,22.9c0,0,0.8,0,2,0.3c1.2,0.3,3,0.8,4.9,2.1c0.9,0.6,1.9,1.4,2.7,2.4c0.8,1,1.6,2.1,2.2,3.4
				c0.3,0.6,0.6,1.3,0.8,2c0.2,0.7,0.4,1.4,0.5,2.1l0.2,1.1l0,0.3l0,0.4l0,0.5c0,0.7,0,1.6-0.2,2.4c-0.5,3.1-2.3,6-4.4,7.9
				c-2.1,1.9-4.5,3.1-6.6,3.8C58.6,53,55.6,53,55.6,53l-0.1-0.7c0,0,0.7-0.2,1.8-0.6c1.1-0.4,2.7-1.1,4.5-2.1c1.8-1,3.7-2.3,5.4-4
				c1.7-1.7,2.9-3.9,3.3-6.3c0.1-0.6,0.2-1.1,0.2-1.8l0-0.5c0,0,0-0.3,0-0.1l0-0.2l-0.1-1c0-0.6-0.1-1.3-0.2-1.9
				c-0.1-0.6-0.2-1.2-0.4-1.8c-0.3-1.2-0.8-2.2-1.4-3.2c-0.6-1-1.3-1.7-2-2.4c-1.5-1.3-3.1-2-4.2-2.4c-1.1-0.4-1.8-0.4-1.8-0.4
				L60.6,22.9z"/>
			<path class="st1" d="M26.3,45c1.2-0.3,2.1-0.7,3-1.3c0.9-0.6,1.6-1.4,2.1-2.4c0.5-0.9,0.6-2,0.4-3c-0.1-1-0.6-2-1.2-3
				c-0.6-1-1.2-2.1-1.5-3.3c-0.2-0.6-0.3-1.2-0.3-1.8c0-0.3-0.1-0.6,0-1c0-0.3,0.1-0.6,0.1-0.9c0.3-1.4,1-2.4,1.8-3.3
				c0.8-1,1.7-1.7,2.7-2.4c2-1.4,4.2-2.3,6.4-3.1c2.2-0.8,4.5-1.4,6.8-1.8c2.3-0.5,4.7-0.8,7-0.7c2.4,0.1,4.7,0.3,7,0.6l0,0
				l-0.3,0.1c2.4-1.8,5.2-2.8,8-3.5c1.4-0.3,2.9-0.5,4.3-0.6c1.5-0.1,2.9,0,4.4,0l0,0.2c-1.4,0-2.9,0-4.3,0.1
				c-1.4,0.1-2.9,0.4-4.2,0.7c-2.8,0.7-5.5,1.9-7.7,3.6l-0.1,0.1l-0.1,0l0,0c-2.3-0.3-4.6-0.5-6.9-0.5c-2.3-0.1-4.6,0.3-6.8,0.8
				c-2.3,0.5-4.5,1.1-6.7,1.8c-2.2,0.8-4.3,1.7-6.1,3c-0.9,0.7-1.8,1.4-2.5,2.2c-0.7,0.8-1.3,1.8-1.5,2.8c-0.1,0.3-0.1,0.6-0.1,0.9
				c0,0.1,0,0.5,0,0.7c0.1,0.5,0.2,1.1,0.3,1.6c0.3,1.1,0.8,2,1.4,3c0.6,1,1.2,2.2,1.3,3.5c0.2,1.2,0.1,2.6-0.5,3.8
				c-0.6,1.2-1.4,2.2-2.5,2.8c-1,0.7-2.4,1-3.6,0.9L26.3,45z"/>
			<path class="st1" d="M38,19.4c-0.2-1-0.4-1.9-0.7-2.8c-0.2-0.4-0.3-0.9-0.6-1.3c-0.1-0.2-0.2-0.4-0.4-0.5
				c-0.1-0.1-0.1-0.1-0.2-0.2c-0.1,0-0.2-0.1-0.1-0.1l0,0l0.2-0.1l-1.1,0.9l0,0l0,0l-0.1,0c-1.3,0.4-2.6,0.8-3.8,1.3
				c-1.2,0.5-2.4,1.1-3.5,1.8c-0.5,0.4-1.1,0.8-1.4,1.3c-0.2,0.2-0.4,0.6-0.4,0.8c0,0.1,0.4,0.4,0.6,0.5c0.3,0.2,0.6,0.3,0.9,0.5
				l0.5,0.2c0,0,0.2,0.1,0.2,0.3c0,0.1,0.1,0.2,0.1,0.3c0.1,0.8,0,1.5-0.1,2.2v0l0,0c-1.6,5.2-3,10.4-4.3,15.6l-1,3.9
				c-0.3,1.2-0.6,2.7-1,4c-0.5,1.3-1.1,2.6-1.8,3.9c-0.4,0.6-0.8,1.2-1.3,1.8c-0.5,0.6-1,1.2-1.9,1.6l0.2-0.1
				c-3.1,2.1-6.1,4.5-8.9,7.1l-0.5-0.4c1.1-1.7,2.4-3.2,3.7-4.6c1.4-1.4,2.8-2.7,4.4-4l0.2-0.1c0.3-0.2,0.7-0.6,1.1-1.1
				c0.4-0.5,0.7-1,1-1.6c0.6-1.1,1.1-2.3,1.6-3.5c0.5-1.2,0.7-2.4,1.1-3.8c0.3-1.3,0.7-2.6,1.2-3.9c1.7-5.2,3.7-10.2,5.7-15.3l0,0
				c0.2-0.6,0.3-1.3,0.3-1.9c0-0.3-0.2-0.3-0.5-0.5l-0.9-0.5c-0.3-0.2-0.6-0.3-0.8-0.8c0-0.5,0.2-0.8,0.4-1.1
				c0.4-0.6,0.9-1.1,1.4-1.6c1-1,2.3-1.7,3.6-2.2c1.3-0.5,2.7-0.9,4-1.1l-0.1,0.1l0,0l1.1-0.9l0.1-0.1l0.1,0l0,0
				c0.3,0,0.4,0.1,0.5,0.2c0.1,0.1,0.2,0.2,0.3,0.3c0.2,0.2,0.3,0.4,0.4,0.7c0.2,0.5,0.4,0.9,0.5,1.4c0.3,1,0.4,1.9,0.6,2.9L38,19.4
				z"/>
			<path class="st1" d="M29.6,33.3c0,0-0.6,2.3-0.2,4.5c0.1,0.5,0.3,1.1,0.5,1.5c0.2,0.4,0.5,0.8,0.7,1.1c0.2,0.3,0.4,0.6,0.6,0.7
				c0.2,0.2,0.2,0.3,0.2,0.3l-0.4,0.6c0,0-0.6-0.2-1.2-0.9c-0.6-0.7-1.1-2-1.1-3.1c-0.1-1.2,0.1-2.4,0.4-3.2
				C29.4,33.8,29.6,33.3,29.6,33.3L29.6,33.3z"/>
			<path class="st1" d="M29.7,35.9c0-0.1,0.3,0.1,0.6,0.4c0.3,0.3,0.6,0.8,0.8,1.4c0.1,0.6,0.1,1.2,0,1.6c-0.1,0.4-0.2,0.7-0.2,0.7
				l-0.6-0.3c0,0,0.5-1,0.4-2c-0.1-0.5-0.3-1-0.5-1.3C29.8,36.1,29.6,36,29.7,35.9z"/>
			<path class="st1" d="M29.5,36.3c0,0,0.7,0.3,0.7,1c0,0.7-0.3,1.2-0.3,1.2l-0.6-0.4c0,0,0.4-0.4,0.4-0.8c0.1-0.5-0.4-0.8-0.4-0.8
				L29.5,36.3z"/>
			<path class="st1" d="M31.9,15.7c0.3,0.1,0.6,0.2,0.7,0.7c0,0.5-0.3,0.8-0.5,1l0,0l0.2-0.4c0,1.4,0,3,0.7,4.2l-0.2,0.2
				c-0.5-0.6-0.8-1.4-1-2.1c-0.2-0.7-0.4-1.5-0.4-2.3l0-0.3l0.2-0.1l0,0c0.2-0.1,0.4-0.2,0.5-0.2c0.1-0.1-0.1-0.4-0.3-0.6L31.9,15.7
				z"/>
			<path class="st2" d="M37.8,35.9"/>
			<path class="st1" d="M8.9,62.2c2.5-1,5.1-1.6,7.7-1.9c2.7-0.3,5.4-0.1,8,0.7c1.3,0.4,2.6,1,3.7,1.7c1.2,0.7,2.2,1.7,3.2,2.5
				l5.9,5.2c3.9,3.4,8,6.7,12.4,9.4c1.1,0.6,2.2,1.4,3.3,1.9c1.1,0.6,2.3,1.2,3.4,1.7c1.2,0.5,2.3,1.1,3.6,1.4
				c1.2,0.5,2.5,0.7,3.7,1l-0.1,0h0c1.7-1,3.5-2,5.2-3c1.7-1,3.4-2.1,5-3.2c3.2-2.3,6.1-4.9,7.7-8.6l0,0l0.4-0.8l0.3,0.8
				c0.6,1.6,1.1,3.3,1.5,5c0.4,1.7,0.7,3.5,0.5,5.3l-0.7-0.1c0.2-3.4-0.9-6.8-2-10l0.7,0v0c-0.3,2.1-1.2,4.1-2.5,5.8
				c-1.3,1.7-2.9,3.1-4.5,4.4c-1.7,1.2-3.5,2.3-5.3,3.2c-1.9,0.9-3.8,1.6-5.8,2l0,0l0,0l-0.1,0c-1.3,0-2.7-0.1-4-0.3
				c-1.3-0.2-2.6-0.6-3.9-1c-1.3-0.5-2.5-1-3.7-1.6c-1.2-0.6-2.4-1.3-3.5-2c-4.5-2.9-8.6-6.2-12.5-9.7c-2-1.7-3.9-3.5-5.8-5.3
				c-1-0.9-1.9-1.8-2.9-2.5c-1-0.7-2.1-1.3-3.3-1.7c-4.8-1.6-10.2-1.2-15.1,0.4L8.9,62.2z"/>
		</g>
		<path class="st1" d="M19.3,54.1c1.5-0.4,3-0.7,4.5-1.2c1.5-0.5,2.9-1.1,4.2-1.8l0,0l0.3-0.2l0.2,0.2c1.7,1.9,3.6,3.8,5.6,5.3
			L33.7,57c-2.1-1.6-3.9-3.4-5.7-5.4l0.5,0l0,0c-1.2,1.1-2.7,1.9-4.2,2.4c-1.6,0.5-3.2,0.8-4.8,0.7L19.3,54.1z"/>
		<path class="st1" d="M38.5,61.7c2.8-0.1,5.5-0.5,8.2-1.2c1.3-0.4,2.7-0.7,4-1.2c1.3-0.5,2.6-1,3.5-1.8l0,0l0,0l0.2-0.1
			c2.3-1,5-0.5,7.1,0.9c1,0.7,1.9,1.6,2.6,2.6c0.7,1,1.1,2.2,1.2,3.3l-0.6,0.3c-0.8-0.9-1.4-1.7-2.1-2.4c-0.4-0.4-0.7-0.7-1.1-1
			c-0.4-0.3-0.8-0.6-1.2-0.8c-1.7-1-3.5-1.6-5.7-2.2l0.2-0.1l0,0c-1,1.2-2.4,1.8-3.7,2.3c-1.3,0.5-2.7,0.9-4.1,1.3
			c-2.8,0.6-5.6,1-8.5,0.9L38.5,61.7z"/>
	</g>
</g>
<path class="st0" d="M-76.7,37.8l0-0.2c-0.1,0-0.2,0.1-0.3,0.1C-76.9,37.7-76.8,37.7-76.7,37.8L-76.7,37.8z"/>
<path class="st0" d="M-80.6,36.8c0.1,0,0.2,0,0.3,0l0,0c0,0-0.1,0-0.1,0C-80.5,36.7-80.6,36.8-80.6,36.8z"/>
<path class="st0" d="M-95.3,37.1L-95.3,37.1C-95.3,37.1-95.3,37.1-95.3,37.1L-95.3,37.1L-95.3,37.1z"/>
<path class="st0" d="M-95.8,37.2L-95.8,37.2C-95.7,37.1-95.7,37.1-95.8,37.2L-95.8,37.2L-95.8,37.2z"/>
<path class="st0" d="M-96.7,38.1L-96.7,38.1C-96.7,38.1-96.6,38.1-96.7,38.1c0.1-0.1,0.1-0.1,0.1-0.1L-96.7,38.1z"/>
<path class="st0" d="M-96.8,37.5L-96.8,37.5c0,0.1,0.1,0.2,0.1,0.2c0.1,0,0.1,0,0.2-0.1C-96.6,37.6-96.7,37.5-96.8,37.5z"/>
<g>
	<g>
		<g>
			<path class="st0" d="M-103,38.5c-0.7,1.6-1.3,3.2-1.8,4.8c-0.4,1.6-0.5,3.2-0.5,4.9c0,0.8,0,1.6,0.1,2.5c0.1,0.8,0.2,1.6,0.4,2.3
				c0.3,0.8,0.5,1.5,0.9,2.3l1,2.4l0,0l-0.6,0.3c-0.5-1.2-0.7-2.6-0.4-4c0.1-0.7,0.5-1.4,1.2-1.9c0.7-0.5,1.5-0.6,2.1-0.5l0,0.7
				c-0.6,0.2-1,0.4-1.3,0.8c-0.3,0.3-0.5,0.8-0.7,1.3c-0.3,1-0.3,2.3-0.3,3.5l0,0.8l-0.6-0.5l0,0c-0.7-0.6-1.3-1.2-1.9-1.9
				c-0.5-0.7-1-1.6-1.4-2.4c-0.4-1-0.5-1.9-0.6-2.8c-0.1-0.9-0.1-1.8,0-2.7c0.1-1.8,0.5-3.6,1.2-5.3c0.7-1.7,1.7-3.1,2.8-4.5
				L-103,38.5z"/>
			<path class="st0" d="M-93.2,36.8c0,0,0-0.3,0.1-0.8c0.1-0.5,0.3-1.2,0.7-1.9c0.4-0.7,1.2-1.5,2.1-2c0.9-0.5,2-0.8,3.1-0.9
				c1-0.1,2.2,0,3.2,0.2c1,0.3,1.9,0.7,2.6,1.2c1.3,1,1.8,2,1.8,2l-0.2,0.1c0,0-0.6-0.9-2-1.7c-0.7-0.4-1.5-0.8-2.4-1
				c-1-0.2-1.9-0.2-3,0c-1,0.2-2,0.5-2.8,0.9c-0.8,0.4-1.4,1-1.9,1.6c-0.9,1.2-1,2.3-1,2.3L-93.2,36.8z"/>
			<path class="st0" d="M-89.9,33.4c0,0-0.3,0.1-0.5,0.6c-0.3,0.5-0.4,1.3-0.3,2.3c0.1,1,0.5,2.1,1.4,2.8c0.4,0.4,1,0.6,1.6,0.7
				c0.5,0.1,1.3,0.1,1.9,0c1.3-0.2,2.5-0.7,3.4-1.5c0.4-0.4,0.7-0.8,0.9-1.3c0.2-0.5,0.2-0.9,0.2-1.4c0-0.9-0.4-1.6-0.7-2.1
				c-0.3-0.5-0.6-0.7-0.6-0.7l0.1-0.2c0,0,0.4,0.1,0.9,0.5c0.6,0.4,1.2,1.2,1.4,2.4c0.1,0.5,0.1,1.3-0.1,1.9
				c-0.2,0.7-0.6,1.3-1.2,1.8c-1.1,1-2.6,1.6-4.1,1.8c-0.8,0.1-1.5,0.1-2.3,0c-0.8-0.2-1.5-0.6-2-1.1c-1.1-1.1-1.4-2.5-1.5-3.6
				c0-1.1,0.2-2.1,0.6-2.6c0.4-0.6,0.8-0.7,0.8-0.7L-89.9,33.4z"/>
			<path class="st0" d="M-83.5,35.7c0,0,0,0.3,0,0.8c0,0.5-0.3,1.2-1.1,1.7c-0.8,0.5-1.8,0.5-2.7,0.2c-0.5-0.2-0.9-0.6-1.1-1
				c-0.2-0.5-0.2-0.9-0.2-1.4c0.1-0.9,0.5-1.7,1.3-2.2c0.7-0.5,1.7-0.5,2.4-0.2c0.7,0.3,1.1,1,1.3,1.4
				C-83.5,35.4-83.5,35.7-83.5,35.7L-83.5,35.7z M-84.8,35.7c0,0,0.2-0.7-0.5-1.4c-0.4-0.3-1.1-0.5-1.8-0.2
				c-0.3,0.1-0.7,0.3-0.9,0.7c-0.2,0.3-0.3,0.7-0.3,1.1c0.1,0.8,0.7,1.4,1.3,1.4c0.6,0,1.2-0.2,1.5-0.5c0.3-0.3,0.4-0.6,0.6-0.8
				C-84.8,35.8-84.8,35.7-84.8,35.7L-84.8,35.7z"/>
			<path class="st0" d="M-86.1,35c0,0,0,0.1,0,0.3c0,0.2-0.2,0.4-0.4,0.6c-0.5,0.4-1.4-0.1-1.3-0.8c0-0.3,0.2-0.6,0.5-0.7
				c0.3-0.1,0.6-0.1,0.8,0C-86.1,34.5-86.1,35-86.1,35L-86.1,35z M-86.8,35c0,0,0.1-0.2-0.1-0.4c-0.1-0.1-0.3-0.2-0.5-0.1
				c-0.2,0-0.4,0.3-0.3,0.5c0.1,0.5,0.7,0.5,0.8,0.3C-86.8,35.1-86.8,35.1-86.8,35L-86.8,35z"/>
			<path class="st0" d="M-102.6,34.7c2.3,0.1,4.7-0.4,6.7-1.3c1-0.5,1.9-1.2,2.6-2c0.7-0.8,1.3-1.8,1.9-2.8c0.6-1,1.2-2.1,2-3.1
				c0.7-1,1.6-2,2.8-2.6c0.6-0.3,1.2-0.6,1.9-0.7C-84.6,22-84.1,22-84,22c0.3-0.1,0.6-0.2,0.8-0.3c0.8-0.4,2-1.1,2.9-1.7
				c4-2.6,8.4-4.9,13.2-5.8c1.2-0.2,2.4-0.4,3.6-0.4c1.2,0,2.4,0,3.6,0.2c1.2,0.1,2.4,0.5,3.6,0.7c1.2,0.3,2.3,0.8,3.4,1.2l0,0
				l0.4,0.2l-0.3,0.4c-0.8,0.9-1.7,1.5-2.7,2.1c-1,0.6-2,1-3.1,1.3c-1.1,0.3-2.2,0.5-3.3,0.6c-1.1,0.1-2.2,0.1-3.3,0l0-0.5
				c2.1-0.7,4.2-1.2,6.2-1.8c2-0.6,4-1.3,5.9-2.3l0.1,0.6l0,0c-1.1-0.3-2.2-0.8-3.3-1.1c-1.1-0.2-2.3-0.5-3.4-0.6
				c-1.2-0.1-2.3-0.1-3.5,0c-1.2,0.1-2.3,0.2-3.4,0.5c-4.6,1-8.7,3.2-12.7,5.8c-1,0.7-1.9,1.3-3.2,1.9c-0.3,0.2-0.6,0.2-0.9,0.3
				c-0.5,0.1-0.6,0.1-0.9,0.2c-0.5,0.1-1,0.3-1.5,0.6c-1.8,1.1-3,3.2-4.2,5.2c-0.6,1-1.2,2.1-2.1,3c-0.9,0.9-2,1.7-3.1,2.2
				c-2.3,1-4.8,1.2-7.3,0.9L-102.6,34.7z"/>
			<path class="st0" d="M-68.2,22.2c0,0,1,0.2,2.7,1c1.7,0.8,4,2.1,6.4,4.2c1.2,1.1,2.4,2.4,3.6,3.8c1.1,1.5,2.2,3.2,3.1,5
				c0.9,1.8,1.7,3.8,2.2,5.9c0.3,1,0.5,2,0.8,3l0.7,3c0.4,2.1,0.7,4.3,0.9,6.4c0.1,1,0.2,2.1,0.2,3.1c0,1,0,2.1-0.1,3.1
				c-0.1,2-0.4,3.9-0.8,5.8c-0.4,1.8-0.9,3.5-1.4,5c-0.6,1.5-1.2,2.9-1.7,4c-0.6,1.1-1.2,2.1-1.7,2.9c-1.1,1.5-1.9,2.3-1.9,2.3
				l-0.6-0.4c0,0,1.4-3.9,2.2-9.8c0.2-1.5,0.4-3.1,0.6-4.7c0.2-1.7,0.2-3.4,0.2-5.3c0-1.8,0-3.7-0.1-5.6c-0.1-2-0.3-3.8-0.6-5.8
				l-0.5-3c-0.2-1-0.3-2-0.5-2.9c-0.4-1.9-0.9-3.6-1.5-5.3c-0.6-1.7-1.4-3.3-2.2-4.7c-0.8-1.4-1.7-2.8-2.7-3.9
				c-1.8-2.3-3.7-4-5.1-5.1c-1.4-1.1-2.3-1.6-2.3-1.6L-68.2,22.2z"/>
			<path class="st0" d="M-79.6,22.9c0,0,0.8,0,2,0.3c1.2,0.3,3,0.8,4.9,2.1c0.9,0.6,1.9,1.4,2.7,2.4c0.8,1,1.6,2.1,2.2,3.4
				c0.3,0.6,0.6,1.3,0.8,2c0.2,0.7,0.4,1.4,0.5,2.1l0.2,1.1l0,0.3l0,0.4l0,0.5c0,0.7,0,1.6-0.2,2.4c-0.5,3.1-2.3,6-4.4,7.9
				c-2.1,1.9-4.5,3.1-6.6,3.8c-4.1,1.5-7.1,1.4-7.1,1.4l-0.1-0.7c0,0,0.7-0.2,1.8-0.6c1.1-0.4,2.7-1.1,4.5-2.1c1.8-1,3.7-2.3,5.4-4
				c1.7-1.7,2.9-3.9,3.3-6.3c0.1-0.6,0.2-1.1,0.2-1.8l0-0.5c0,0,0-0.3,0-0.1l0-0.2l-0.1-1c0-0.6-0.1-1.3-0.2-1.9
				c-0.1-0.6-0.2-1.2-0.4-1.8c-0.3-1.2-0.8-2.2-1.4-3.2c-0.6-1-1.3-1.7-2-2.4c-1.5-1.3-3.1-2-4.2-2.4c-1.1-0.4-1.8-0.4-1.8-0.4
				L-79.6,22.9z"/>
			<path class="st0" d="M-113.9,45c1.2-0.3,2.1-0.7,3-1.3c0.9-0.6,1.6-1.4,2.1-2.4c0.5-0.9,0.6-2,0.4-3c-0.1-1-0.6-2-1.2-3
				c-0.6-1-1.2-2.1-1.5-3.3c-0.2-0.6-0.3-1.2-0.3-1.8c0-0.3-0.1-0.6,0-1c0-0.3,0.1-0.6,0.1-0.9c0.3-1.4,1-2.4,1.8-3.3
				c0.8-1,1.7-1.7,2.7-2.4c2-1.4,4.2-2.3,6.4-3.1c2.2-0.8,4.5-1.4,6.8-1.8c2.3-0.5,4.7-0.8,7-0.7c2.4,0.1,4.7,0.3,7,0.6l0,0
				l-0.3,0.1c2.4-1.8,5.2-2.8,8-3.5c1.4-0.3,2.9-0.5,4.3-0.6c1.5-0.1,2.9,0,4.4,0l0,0.2c-1.4,0-2.9,0-4.3,0.1
				c-1.4,0.1-2.9,0.4-4.2,0.7c-2.8,0.7-5.5,1.9-7.7,3.6l-0.1,0.1l-0.1,0l0,0c-2.3-0.3-4.6-0.5-6.9-0.5c-2.3-0.1-4.6,0.3-6.8,0.8
				c-2.3,0.5-4.5,1.1-6.7,1.8c-2.2,0.8-4.3,1.7-6.1,3c-0.9,0.7-1.8,1.4-2.5,2.2c-0.7,0.8-1.3,1.8-1.5,2.8c-0.1,0.3-0.1,0.6-0.1,0.9
				c0,0.1,0,0.5,0,0.7c0.1,0.5,0.2,1.1,0.3,1.6c0.3,1.1,0.8,2,1.4,3c0.6,1,1.2,2.2,1.3,3.5c0.2,1.2,0.1,2.6-0.5,3.8
				c-0.6,1.2-1.4,2.2-2.5,2.8c-1,0.7-2.4,1-3.6,0.9L-113.9,45z"/>
			<path class="st0" d="M-102.2,19.4c-0.2-1-0.4-1.9-0.7-2.8c-0.2-0.4-0.3-0.9-0.6-1.3c-0.1-0.2-0.2-0.4-0.4-0.5
				c-0.1-0.1-0.1-0.1-0.2-0.2c-0.1,0-0.2-0.1-0.1-0.1l0,0l0.2-0.1l-1.1,0.9l0,0l0,0l-0.1,0c-1.3,0.4-2.6,0.8-3.8,1.3
				c-1.2,0.5-2.4,1.1-3.5,1.8c-0.5,0.4-1.1,0.8-1.4,1.3c-0.2,0.2-0.4,0.6-0.4,0.8c0,0.1,0.4,0.4,0.6,0.5c0.3,0.2,0.6,0.3,0.9,0.5
				l0.5,0.2c0,0,0.2,0.1,0.2,0.3c0,0.1,0.1,0.2,0.1,0.3c0.1,0.8,0,1.5-0.1,2.2v0l0,0c-1.6,5.2-3,10.4-4.3,15.6l-1,3.9
				c-0.3,1.2-0.6,2.7-1,4c-0.5,1.3-1.1,2.6-1.8,3.9c-0.4,0.6-0.8,1.2-1.3,1.8c-0.5,0.6-1,1.2-1.9,1.6l0.2-0.1
				c-3.1,2.1-6.1,4.5-8.9,7.1l-0.5-0.4c1.1-1.7,2.4-3.2,3.7-4.6c1.4-1.4,2.8-2.7,4.4-4l0.2-0.1c0.3-0.2,0.7-0.6,1.1-1.1
				c0.4-0.5,0.7-1,1-1.6c0.6-1.1,1.1-2.3,1.6-3.5c0.5-1.2,0.7-2.4,1.1-3.8c0.3-1.3,0.7-2.6,1.2-3.9c1.7-5.2,3.7-10.2,5.7-15.3l0,0
				c0.2-0.6,0.3-1.3,0.3-1.9c0-0.3-0.2-0.3-0.5-0.5l-0.9-0.5c-0.3-0.2-0.6-0.3-0.8-0.8c0-0.5,0.2-0.8,0.4-1.1
				c0.4-0.6,0.9-1.1,1.4-1.6c1-1,2.3-1.7,3.6-2.2c1.3-0.5,2.7-0.9,4-1.1l-0.1,0.1l0,0l1.1-0.9l0.1-0.1l0.1,0l0,0
				c0.3,0,0.4,0.1,0.5,0.2c0.1,0.1,0.2,0.2,0.3,0.3c0.2,0.2,0.3,0.4,0.4,0.7c0.2,0.5,0.4,0.9,0.5,1.4c0.3,1,0.4,1.9,0.6,2.9
				L-102.2,19.4z"/>
			<path class="st0" d="M-110.5,33.3c0,0-0.6,2.3-0.2,4.5c0.1,0.5,0.3,1.1,0.5,1.5c0.2,0.4,0.5,0.8,0.7,1.1c0.2,0.3,0.4,0.6,0.6,0.7
				c0.2,0.2,0.2,0.3,0.2,0.3l-0.4,0.6c0,0-0.6-0.2-1.2-0.9c-0.6-0.7-1.1-2-1.1-3.1c-0.1-1.2,0.1-2.4,0.4-3.2
				C-110.8,33.8-110.5,33.3-110.5,33.3L-110.5,33.3z"/>
			<path class="st0" d="M-110.5,35.9c0-0.1,0.3,0.1,0.6,0.4c0.3,0.3,0.6,0.8,0.8,1.4c0.1,0.6,0.1,1.2,0,1.6
				c-0.1,0.4-0.2,0.7-0.2,0.7l-0.6-0.3c0,0,0.5-1,0.4-2c-0.1-0.5-0.3-1-0.5-1.3C-110.3,36.1-110.6,36-110.5,35.9z"/>
			<path class="st0" d="M-110.6,36.3c0,0,0.7,0.3,0.7,1c0,0.7-0.3,1.2-0.3,1.2l-0.6-0.4c0,0,0.4-0.4,0.4-0.8
				c0.1-0.5-0.4-0.8-0.4-0.8L-110.6,36.3z"/>
			<path class="st0" d="M-108.2,15.7c0.3,0.1,0.6,0.2,0.7,0.7c0,0.5-0.3,0.8-0.5,1l0,0l0.2-0.4c0,1.4,0,3,0.7,4.2l-0.2,0.2
				c-0.5-0.6-0.8-1.4-1-2.1c-0.2-0.7-0.4-1.5-0.4-2.3l0-0.3l0.2-0.1l0,0c0.2-0.1,0.4-0.2,0.5-0.2c0.1-0.1-0.1-0.4-0.3-0.6
				L-108.2,15.7z"/>
			<path class="st3" d="M-102.4,35.9"/>
			<path class="st0" d="M-131.3,62.2c2.5-1,5.1-1.6,7.7-1.9c2.7-0.3,5.4-0.1,8,0.7c1.3,0.4,2.6,1,3.7,1.7c1.2,0.7,2.2,1.7,3.2,2.5
				l5.9,5.2c3.9,3.4,8,6.7,12.4,9.4c1.1,0.6,2.2,1.4,3.3,1.9c1.1,0.6,2.3,1.2,3.4,1.7c1.2,0.5,2.3,1.1,3.6,1.4
				c1.2,0.5,2.5,0.7,3.7,1l-0.1,0h0c1.7-1,3.5-2,5.2-3c1.7-1,3.4-2.1,5-3.2c3.2-2.3,6.1-4.9,7.7-8.6l0,0l0.4-0.8l0.3,0.8
				c0.6,1.6,1.1,3.3,1.5,5c0.4,1.7,0.7,3.5,0.5,5.3l-0.7-0.1c0.2-3.4-0.9-6.8-2-10l0.7,0v0c-0.3,2.1-1.2,4.1-2.5,5.8
				c-1.3,1.7-2.9,3.1-4.5,4.4c-1.7,1.2-3.5,2.3-5.3,3.2c-1.9,0.9-3.8,1.6-5.8,2l0,0l0,0l-0.1,0c-1.3,0-2.7-0.1-4-0.3
				c-1.3-0.2-2.6-0.6-3.9-1c-1.3-0.5-2.5-1-3.7-1.6c-1.2-0.6-2.4-1.3-3.5-2c-4.5-2.9-8.6-6.2-12.5-9.7c-2-1.7-3.9-3.5-5.8-5.3
				c-1-0.9-1.9-1.8-2.9-2.5c-1-0.7-2.1-1.3-3.3-1.7c-4.8-1.6-10.2-1.2-15.1,0.4L-131.3,62.2z"/>
		</g>
		<path class="st0" d="M-120.8,54.1c1.5-0.4,3-0.7,4.5-1.2c1.5-0.5,2.9-1.1,4.2-1.8l0,0l0.3-0.2l0.2,0.2c1.7,1.9,3.6,3.8,5.6,5.3
			l-0.4,0.6c-2.1-1.6-3.9-3.4-5.7-5.4l0.5,0l0,0c-1.2,1.1-2.7,1.9-4.2,2.4c-1.6,0.5-3.2,0.8-4.8,0.7L-120.8,54.1z"/>
		<path class="st0" d="M-101.7,61.7c2.8-0.1,5.5-0.5,8.2-1.2c1.3-0.4,2.7-0.7,4-1.2c1.3-0.5,2.6-1,3.5-1.8l0,0l0,0l0.2-0.1
			c2.3-1,5-0.5,7.1,0.9c1,0.7,1.9,1.6,2.6,2.6c0.7,1,1.1,2.2,1.2,3.3l-0.6,0.3c-0.8-0.9-1.4-1.7-2.1-2.4c-0.4-0.4-0.7-0.7-1.1-1
			c-0.4-0.3-0.8-0.6-1.2-0.8c-1.7-1-3.5-1.6-5.7-2.2l0.2-0.1l0,0c-1,1.2-2.4,1.8-3.7,2.3c-1.3,0.5-2.7,0.9-4.1,1.3
			c-2.8,0.6-5.6,1-8.5,0.9L-101.7,61.7z"/>
	</g>
</g>
</svg>
