<?xml version="1.0" encoding="utf-8"?>
<!-- Generator: Adobe Illustrator 20.0.0, SVG Export Plug-In . SVG Version: 6.00 Build 0)  -->
<svg version="1.1" id="圖層_1" xmlns="http://www.w3.org/2000/svg" xmlns:xlink="http://www.w3.org/1999/xlink" x="0px" y="0px"
	 viewBox="0 0 30 20" style="enable-background:new 0 0 30 20;" xml:space="preserve">
<style type="text/css">
	.st0{fill:#595757;}
	.st1{fill:#E83828;}
	.st2{fill:#13AE67;}
</style>
<g>
	<path class="st0" d="M29.8,0.2v19.6h-4.6V0.2H29.8 M30,0h-5v20h5V0L30,0z"/>
</g>
<g>
	<path class="st0" d="M23.5,4.2v15.6H19V4.2H23.5 M23.8,4h-5v16h5V4L23.8,4z"/>
</g>
<g>
	<path class="st0" d="M17.3,8.2v11.6h-4.6V8.2H17.3 M17.5,8h-5v12h5V8L17.5,8z"/>
</g>
<g>
	<path class="st0" d="M11.1,12.2v7.6H6.4v-7.6H11.1 M11.2,12h-5v8h5V12L11.2,12z"/>
</g>
<rect y="16" class="st1" width="5" height="4"/>
</svg>
